<svg xmlns="http://www.w3.org/2000/svg" width="32.851" height="31.941" viewBox="0 0 32.851 31.941">
  <path id="element-icon1" d="M1.267,1.567H15.723V15.422H1.267ZM3.129,3.43V13.559H13.861V3.43ZM25.285,1.567l8.236,13.855H17.048Zm-.039,3.24-5.071,8.752H30.234ZM.67,25.126l8.383-8.383,8.383,8.383L9.053,33.509Zm8.383-5.588L3.464,25.126l5.588,5.588,5.588-5.588ZM25.871,17.4a7.451,7.451,0,1,1-7.451,7.451A7.356,7.356,0,0,1,25.871,17.4Zm-5.588,7.451a5.381,5.381,0,0,0,5.588,5.588,5.381,5.381,0,0,0,5.588-5.588,5.381,5.381,0,0,0-5.588-5.588A5.381,5.381,0,0,0,20.283,24.849Z" transform="translate(-0.67 -1.567)" fill="#0900ff"/>
</svg>
